<svg width="24" height="24" viewBox="0 0 24 24" fill="none" xmlns="http://www.w3.org/2000/svg">
<path fill-rule="evenodd" clip-rule="evenodd" d="M13.1472 18.2354C13.0192 18.261 12.8867 18.2528 12.7628 18.2115L9.76283 17.2115C9.36987 17.0805 9.1575 16.6558 9.28849 16.2628C9.41947 15.8699 9.84421 15.6575 10.2372 15.7885L13.0486 16.7256L13.1785 16.6998C13.386 16.6587 13.6835 16.6 14.0435 16.5296C14.7634 16.3887 15.7342 16.2008 16.7368 16.0128C17.7386 15.825 18.7756 15.6364 19.6267 15.4946C20.442 15.3587 21.1726 15.25 21.5 15.25C21.8668 15.25 22.2527 15.3417 22.5564 15.6074C22.8732 15.8847 23 16.2631 23 16.625C23 17.2917 22.5879 17.9727 22.0303 18.5303C21.4988 19.0618 20.3317 20.0984 18.9027 21.0077C17.4946 21.9038 15.7193 22.75 14 22.75C12.373 22.75 11.0272 22.3413 9.88783 21.9615C9.77776 21.9248 9.67051 21.8888 9.56581 21.8536C8.54574 21.511 7.76858 21.25 7 21.25H2.00055L2 20.5L2.00003 19.75H7C8.03069 19.75 9.05304 20.096 10.0212 20.4237C10.1356 20.4624 10.2493 20.5009 10.3622 20.5385C11.4728 20.9087 12.627 21.25 14 21.25C15.2807 21.25 16.7554 20.5962 18.0973 19.7423C19.4183 18.9016 20.5012 17.9382 20.9697 17.4697C21.1774 17.262 21.3166 17.0704 21.4007 16.9127C21.4351 16.8482 21.4578 16.7941 21.4727 16.7505C21.2717 16.7576 20.7042 16.8357 19.8733 16.9742C19.0369 17.1136 18.0114 17.3 17.0132 17.4872C16.0158 17.6742 15.0491 17.8613 14.3315 18.0017C13.9728 18.0719 13.6765 18.1303 13.47 18.1712L13.1472 18.2354ZM21.6061 16.7615C21.6061 16.7615 21.6055 16.7613 21.6043 16.7607L21.6061 16.7615ZM2 20.5L2.00003 19.75C1.58582 19.75 1.25 20.0858 1.25 20.5C1.25 20.9142 1.58633 21.25 2.00055 21.25L2 20.5Z" fill="#309975"/>
<path fill-rule="evenodd" clip-rule="evenodd" d="M4.4971 13.5262C3.68984 13.9875 2.99196 14.5687 2.53033 15.0303C2.23744 15.3232 1.76256 15.3232 1.46967 15.0303C1.17678 14.7374 1.17678 14.2626 1.46967 13.9697C2.00804 13.4313 2.81016 12.7625 3.7529 12.2238C4.68945 11.6886 5.82058 11.25 7 11.25C7.60123 11.25 8.35003 11.3961 9.10911 11.605C9.88105 11.8174 10.7142 12.109 11.5022 12.4306C12.2894 12.7519 13.0456 13.1089 13.6613 13.456C13.9689 13.6294 14.2506 13.8055 14.4873 13.9787C14.7143 14.1448 14.9403 14.337 15.1 14.55C15.4844 15.0625 15.4509 15.6314 15.2843 16.0758C15.1278 16.4931 14.8391 16.8598 14.5784 17.138C14.3088 17.4255 14.0192 17.6703 13.8027 17.8401C13.6931 17.9261 13.5992 17.9952 13.5316 18.0436C13.4978 18.0678 13.4703 18.0869 13.4507 18.1005L13.4271 18.1166L13.4199 18.1214L13.4176 18.123L13.4167 18.1236L13.4163 18.1238C13.4162 18.1239 13.416 18.124 13 17.5L13.416 18.124C13.0714 18.3538 12.6057 18.2607 12.376 17.916C12.1463 17.5716 12.2392 17.1063 12.5833 16.8764C12.5835 16.8763 12.5836 16.8762 12.5837 16.8761L12.584 16.876L12.5858 16.8747L12.5995 16.8654C12.6124 16.8564 12.6326 16.8424 12.6588 16.8236C12.7113 16.786 12.7873 16.7302 12.877 16.6599C13.0589 16.5172 13.2849 16.3245 13.4841 16.112C13.6921 15.8902 13.8253 15.6944 13.8798 15.5492C13.9004 15.4943 13.9029 15.4643 13.903 15.4543C13.9023 15.4531 13.9013 15.4517 13.9 15.45C13.8722 15.413 13.7857 15.324 13.6016 15.1893C13.4271 15.0617 13.1991 14.9174 12.9246 14.7627C12.3763 14.4536 11.6793 14.1231 10.9353 13.8194C10.1921 13.516 9.41583 13.2451 8.7112 13.0513C7.99372 12.8539 7.39877 12.75 7 12.75C6.17942 12.75 5.31055 13.0614 4.4971 13.5262Z" fill="#309975"/>
<path fill-rule="evenodd" clip-rule="evenodd" d="M9 4.75C8.86192 4.75 8.75 4.86192 8.75 5V9C8.75 9.41421 8.41421 9.75 8 9.75C7.58579 9.75 7.25 9.41421 7.25 9V5C7.25 4.03351 8.03348 3.25 9 3.25H21C21.9665 3.25 22.75 4.03351 22.75 5V13C22.75 13.4142 22.4142 13.75 22 13.75C21.5858 13.75 21.25 13.4142 21.25 13V5C21.25 4.86192 21.1381 4.75 21 4.75H9Z" fill="#309975"/>
<path fill-rule="evenodd" clip-rule="evenodd" d="M11.75 4C11.75 3.58579 12.0858 3.25 12.5 3.25H17.5C17.9142 3.25 18.25 3.58579 18.25 4V8.5C18.25 8.91421 17.9142 9.25 17.5 9.25H12.5C12.0858 9.25 11.75 8.91421 11.75 8.5V4ZM13.25 4.75V7.75H16.75V4.75H13.25Z" fill="#309975"/>
</svg>
