<svg width="16" height="32" viewBox="0 0 16 32" fill="none" xmlns="http://www.w3.org/2000/svg">
<g clip-path="url(#clip0)">
<path d="M3.58661 21.3117L3.0938 21.2272L3.58661 21.3117ZM4.31208 21.8388L4.07941 21.3963L4.31208 21.8388ZM4.10271 17.0216L4.45172 16.6636L4.10271 17.0216ZM4.24651 17.4642L4.73932 17.5487L4.24651 17.4642ZM1.58441 13.4439L1.65631 13.9387L1.58441 13.4439ZM1.3073 14.2968L0.958297 14.6548L1.3073 14.2968ZM5.82404 12.6091L5.37567 12.3878L5.82404 12.6091ZM5.44757 12.8826L5.37567 12.3878L5.44757 12.8826ZM8.44844 9.10843L8.89681 8.88715L8.44844 9.10843ZM7.5517 9.10843L8.00007 9.32971L7.5517 9.10843ZM10.5526 12.8826L10.6245 12.3878L10.5526 12.8826ZM10.1761 12.6091L9.72773 12.8303L10.1761 12.6091ZM14.6928 14.2968L15.0418 14.6548L14.6928 14.2968ZM14.4157 13.4439L14.3438 13.9387L14.4157 13.4439ZM11.7536 17.4642L11.2608 17.5487L11.7536 17.4642ZM11.8974 17.0216L11.5484 16.6636L11.8974 17.0216ZM11.6881 21.8388L11.4554 22.2814L11.6881 21.8388ZM12.4135 21.3117L12.9063 21.2272L12.4135 21.3117ZM8.23274 20.0223L8.46541 19.5797L8.23274 20.0223ZM7.7674 20.0223L8.00007 20.4648L7.7674 20.0223ZM8.00007 20.4648L11.4554 22.2814L11.9207 21.3963L8.46541 19.5797L8.00007 20.4648ZM12.9063 21.2272L12.2464 17.3797L11.2608 17.5487L11.9207 21.3963L12.9063 21.2272ZM12.2464 17.3797L15.0418 14.6548L14.3438 13.9387L11.5484 16.6636L12.2464 17.3797ZM14.4876 12.9491L10.6245 12.3878L10.4807 13.3774L14.3438 13.9387L14.4876 12.9491ZM10.6245 12.3878L8.89681 8.88715L8.00007 9.32971L9.72773 12.8303L10.6245 12.3878ZM7.10333 8.88715L5.37567 12.3878L6.27241 12.8303L8.00007 9.32971L7.10333 8.88715ZM5.37567 12.3878L1.51251 12.9491L1.65631 13.9387L5.51947 13.3774L5.37567 12.3878ZM0.958297 14.6548L3.75371 17.3797L4.45172 16.6636L1.65631 13.9387L0.958297 14.6548ZM3.75371 17.3797L3.0938 21.2272L4.07941 21.3963L4.73932 17.5487L3.75371 17.3797ZM4.54475 22.2814L8.00007 20.4648L7.53473 19.5797L4.07941 21.3963L4.54475 22.2814ZM3.0938 21.2272C2.95369 22.0441 3.81113 22.6671 4.54475 22.2814L4.07941 21.3963V21.3963L3.0938 21.2272ZM3.75371 17.3797L3.75371 17.3797L4.73932 17.5487C4.79495 17.2243 4.68741 16.8933 4.45172 16.6636L3.75371 17.3797ZM1.51251 12.9491C0.692286 13.0683 0.364782 14.0763 0.958297 14.6548L1.65631 13.9387H1.65631L1.51251 12.9491ZM5.37567 12.3878V12.3878L5.51947 13.3774C5.84518 13.33 6.12675 13.1255 6.27241 12.8303L5.37567 12.3878ZM8.89681 8.88715C8.52999 8.1439 7.47015 8.1439 7.10333 8.88715L8.00007 9.32971L8.00007 9.32971L8.89681 8.88715ZM10.6245 12.3878L9.72773 12.8303C9.87339 13.1255 10.155 13.33 10.4807 13.3774L10.6245 12.3878ZM15.0418 14.6548C15.6354 14.0763 15.3078 13.0683 14.4876 12.9491L14.3438 13.9387L14.3438 13.9387L15.0418 14.6548ZM12.2464 17.3797V17.3797L11.5484 16.6636C11.3127 16.8933 11.2052 17.2243 11.2608 17.5487L12.2464 17.3797ZM11.4554 22.2814C12.189 22.6671 13.0464 22.0441 12.9063 21.2272L11.9207 21.3963L11.9207 21.3963L11.4554 22.2814ZM8.46541 19.5797C8.17409 19.4265 7.82605 19.4265 7.53473 19.5797L8.00007 20.4648L8.46541 19.5797Z" fill="#DAD873"/>
</g>
<defs>
<clipPath id="clip0">
<rect width="16" height="32" fill="white"/>
</clipPath>
</defs>
</svg>
