<svg width="16" height="32" viewBox="0 0 16 32" fill="none" xmlns="http://www.w3.org/2000/svg">
<g clip-path="url(#clip0)">
<path d="M1.23907 14.1247L1.23908 14.1247L1.23691 14.1229C0.990273 13.9162 1.09125 13.4872 1.4648 13.4468L5.64239 13.1357L5.9515 13.1127L6.06836 12.8256L7.64243 8.95869C7.78786 8.63142 8.2361 8.66277 8.35331 8.95201L8.3536 8.95273L9.9301 12.8256L10.047 13.1127L10.3561 13.1357L14.5408 13.4473L14.5414 13.4474C14.8876 13.4728 15.0248 13.9027 14.7627 14.1226L14.7607 14.1243L11.5688 16.8301L11.3331 17.0299L11.4064 17.33L12.3983 21.3939C12.4721 21.723 12.1044 21.9802 11.8242 21.8073L8.26258 19.6081L7.99987 19.4459L7.73717 19.6081L4.17522 21.8078L4.17521 21.8078L4.17188 21.8099C3.87355 21.9974 3.51671 21.7246 3.59909 21.4039L3.59912 21.4039L3.60056 21.398L4.59318 17.3302L4.66642 17.0301L4.43074 16.8303L1.23907 14.1247Z" stroke="#DAD873"/>
<path d="M4.10743 17.2117L0.915759 14.5061C0.312101 14.0002 0.623709 13.0272 1.42075 12.9487L5.60526 12.6371L7.18175 8.76419C7.3365 8.40656 7.66881 8.22654 7.99989 8.22412V20.0335L4.43794 22.2332C3.75715 22.6611 2.91989 22.0383 3.11481 21.2795L4.10743 17.2117Z" fill="#DAD873"/>
</g>
<defs>
<clipPath id="clip0">
<rect width="16" height="32" fill="white"/>
</clipPath>
</defs>
</svg>
