<svg width="16" height="32" viewBox="0 0 16 32" fill="none" xmlns="http://www.w3.org/2000/svg">
<g clip-path="url(#clip0)">
<path d="M7.53451 21.0446C7.82584 20.8915 8.17387 20.8915 8.46519 21.0446L11.8491 22.8237C12.5827 23.2094 13.4402 22.5864 13.3001 21.7695L12.6538 18.0014C12.5982 17.677 12.7057 17.346 12.9414 17.1163L15.679 14.4478C16.2726 13.8692 15.9451 12.8612 15.1248 12.7421L11.3415 12.1923C11.0158 12.145 10.7342 11.9404 10.5886 11.6453L8.89659 8.21698C8.52978 7.47373 7.46993 7.47373 7.10312 8.21698L5.41115 11.6453C5.26549 11.9404 4.98393 12.145 4.65822 12.1923L0.874872 12.7421C0.0546521 12.8612 -0.272858 13.8692 0.320659 14.4478L3.05831 17.1163C3.294 17.346 3.40155 17.677 3.34591 18.0014L2.69964 21.7695C2.55953 22.5864 3.41696 23.2094 4.15059 22.8237L7.53451 21.0446Z" fill="#DAD873"/>
</g>
<defs>
<clipPath id="clip0">
<rect width="16" height="32" fill="white"/>
</clipPath>
</defs>
</svg>
