<svg width="24" height="24" viewBox="0 0 24 24" fill="none" xmlns="http://www.w3.org/2000/svg">
<path fill-rule="evenodd" clip-rule="evenodd" d="M11.6646 1.32918C11.8757 1.22361 12.1243 1.22361 12.3354 1.32918L22.3354 6.32918C22.5895 6.45622 22.75 6.71592 22.75 7V17C22.75 17.2841 22.5895 17.5438 22.3354 17.6708L12.3354 22.6708C12.1243 22.7764 11.8757 22.7764 11.6646 22.6708L1.66459 17.6708C1.4105 17.5438 1.25 17.2841 1.25 17V7C1.25 6.71592 1.4105 6.45622 1.66459 6.32918L11.6646 1.32918ZM2.75 7.46353V16.5365L12 21.1615L21.25 16.5365V7.46353L12 2.83853L2.75 7.46353Z" fill="#309975"/>
<path fill-rule="evenodd" clip-rule="evenodd" d="M1.32934 6.66463C1.51459 6.29415 1.96509 6.14398 2.33557 6.32922L12.3356 11.3292C12.7061 11.5145 12.8562 11.965 12.671 12.3355C12.4857 12.7059 12.0352 12.8561 11.6648 12.6709L1.66475 7.67086C1.29427 7.48562 1.1441 7.03512 1.32934 6.66463Z" fill="#309975"/>
<path fill-rule="evenodd" clip-rule="evenodd" d="M12 11.25C12.4142 11.25 12.75 11.5858 12.75 12V22C12.75 22.4142 12.4142 22.75 12 22.75C11.5858 22.75 11.25 22.4142 11.25 22V12C11.25 11.5858 11.5858 11.25 12 11.25Z" fill="#309975"/>
<path fill-rule="evenodd" clip-rule="evenodd" d="M22.671 6.66463C22.8562 7.03512 22.7061 7.48562 22.3356 7.67086L12.3356 12.6709C11.9651 12.8561 11.5146 12.7059 11.3293 12.3355C11.1441 11.965 11.2943 11.5145 11.6648 11.3292L21.6648 6.32922C22.0352 6.14398 22.4857 6.29415 22.671 6.66463Z" fill="#309975"/>
<path fill-rule="evenodd" clip-rule="evenodd" d="M17.671 4.16463C17.8562 4.53512 17.7061 4.98562 17.3356 5.17086L7.33557 10.1709C6.96509 10.3561 6.51459 10.2059 6.32934 9.83545C6.1441 9.46497 6.29427 9.01446 6.66475 8.82922L16.6648 3.82922C17.0352 3.64398 17.4857 3.79415 17.671 4.16463Z" fill="#309975"/>
</svg>
